<svg width="233" height="233" viewBox="0 0 233 233" fill="none" xmlns="http://www.w3.org/2000/svg">
<path d="M154.247 3.53272L155.493 4.63247L228.368 77.5075C230.601 79.753 231.957 82.7244 232.188 85.8832C232.42 89.042 231.512 92.1792 229.63 94.7264C227.747 97.2736 225.015 99.0623 221.927 99.7683C218.84 100.474 215.601 100.051 212.799 98.575L170.77 140.591L151.902 190.901C151.405 192.228 150.698 193.468 149.809 194.571L148.881 195.631L129.006 215.506C126.723 217.786 123.686 219.154 120.466 219.354C117.246 219.554 114.064 218.572 111.516 216.593L110.257 215.493L73.25 178.499L22.9927 228.743C20.6083 231.119 17.4087 232.499 14.0439 232.602C10.6791 232.704 7.4013 231.523 4.87631 229.296C2.35132 227.07 0.768455 223.966 0.449214 220.614C0.129974 217.263 1.09829 213.916 3.1575 211.253L4.25725 210.007L54.5013 159.75L17.5073 122.743C15.2259 120.461 13.8554 117.426 13.653 114.206C13.4505 110.986 14.4299 107.802 16.4075 105.253L17.5073 104.007L37.3823 84.1325C38.382 83.1291 39.5361 82.2926 40.8008 81.6547L42.0993 81.0982L92.3962 62.217L134.412 20.2145C132.979 17.5357 132.511 14.446 133.084 11.4629C133.658 8.47975 135.239 5.78434 137.563 3.82815C139.888 1.87196 142.813 0.773797 145.851 0.717601C148.888 0.661404 151.852 1.66384 154.247 3.53272Z" fill="#4F8D64"/>
</svg>
