<svg width="16" height="16" viewBox="0 0 16 16" fill="none" xmlns="http://www.w3.org/2000/svg">
<path d="M10.0753 2.1398L10.138 2.19514L13.8047 5.8618C13.9171 5.97479 13.9852 6.12429 13.9969 6.28322C14.0085 6.44215 13.9629 6.6 13.8682 6.72816C13.7734 6.85633 13.636 6.94632 13.4806 6.98184C13.3253 7.01737 13.1623 6.99607 13.0213 6.9218L10.9067 9.0358L9.95733 11.5671C9.93233 11.6339 9.89676 11.6963 9.852 11.7518L9.80533 11.8051L8.80533 12.8051C8.69045 12.9198 8.53768 12.9887 8.37566 12.9987C8.21365 13.0088 8.05352 12.9594 7.92533 12.8598L7.862 12.8045L6 10.9431L3.47133 13.4711C3.35136 13.5907 3.19038 13.6601 3.02108 13.6653C2.85178 13.6705 2.68686 13.611 2.55981 13.499C2.43277 13.3869 2.35313 13.2308 2.33707 13.0622C2.321 12.8935 2.36972 12.7251 2.47333 12.5911L2.52867 12.5285L5.05667 9.9998L3.19533 8.1378C3.08055 8.02301 3.01159 7.87027 3.00141 7.70826C2.99122 7.54624 3.0405 7.38607 3.14 7.2578L3.19533 7.19514L4.19533 6.19514C4.24563 6.14465 4.3037 6.10256 4.36733 6.07047L4.43267 6.04247L6.96333 5.09247L9.07733 2.97914C9.00525 2.84436 8.98166 2.6889 9.01053 2.5388C9.03939 2.38871 9.11896 2.25309 9.2359 2.15467C9.35284 2.05624 9.50004 2.00099 9.65286 1.99816C9.80568 1.99533 9.95483 2.04577 10.0753 2.1398Z" fill="#B2B3B2"/>
</svg>
