<svg width="40" height="40" viewBox="0 0 40 40" fill="none" xmlns="http://www.w3.org/2000/svg">
<circle cx="20" cy="20" r="20" fill="#B2B3B2"/>
<path d="M17.495 23.505C17.495 22.9527 17.0473 22.505 16.495 22.505H11C10.4477 22.505 10 22.0573 10 21.505V18.495C10 17.9427 10.4477 17.495 11 17.495H16.495C17.0473 17.495 17.495 17.0473 17.495 16.495V11C17.495 10.4477 17.9427 10 18.495 10H21.505C22.0573 10 22.505 10.4477 22.505 11V16.495C22.505 17.0473 22.9527 17.495 23.505 17.495H29C29.5523 17.495 30 17.9427 30 18.495V21.505C30 22.0573 29.5523 22.505 29 22.505H23.505C22.9527 22.505 22.505 22.9527 22.505 23.505V29C22.505 29.5523 22.0573 30 21.505 30H18.495C17.9427 30 17.495 29.5523 17.495 29V23.505Z" fill="white"/>
</svg>
