<svg width="24" height="24" viewBox="0 0 24 24" fill="none" xmlns="http://www.w3.org/2000/svg">
<path fill-rule="evenodd" clip-rule="evenodd" d="M12 2.82549C11.9413 2.92781 11.8735 3.04856 11.7964 3.18772L11.6961 3.36781L11.6726 3.40874C11.5927 3.55609 11.4597 3.79963 11.2377 3.96847C11.0115 4.14037 10.7383 4.19972 10.5797 4.23451L10.5347 4.24372L10.3403 4.28772C10.1602 4.32865 10.0139 4.3614 9.89005 4.39312C9.97088 4.49237 10.0763 4.61721 10.2134 4.77786L10.3464 4.9334L10.3771 4.96819C10.4876 5.09609 10.6657 5.30074 10.7486 5.56679C10.8304 5.82874 10.8018 6.09888 10.7844 6.26874L10.7793 6.31684L10.7588 6.52456L10.7158 6.99526C10.8233 6.94819 10.944 6.89293 11.0883 6.82642L11.2714 6.74251L11.3124 6.72205C11.4597 6.65349 11.7145 6.53274 12 6.53274C12.2855 6.53274 12.5403 6.65349 12.6876 6.72307L12.7286 6.74251L12.9117 6.82642C13.0543 6.89327 13.1784 6.94955 13.2842 6.99526L13.2412 6.52456L13.2207 6.31684L13.2156 6.26874C13.1982 6.09786 13.1696 5.82874 13.2514 5.56679C13.3333 5.30074 13.5124 5.09609 13.6229 4.96819L13.6536 4.9334L13.7866 4.77786C13.9237 4.61721 14.0291 4.49237 14.11 4.39312C13.9861 4.36242 13.8398 4.32865 13.6597 4.28772L13.4653 4.24372L13.4203 4.23349C13.2617 4.19972 12.9885 4.14037 12.7623 3.96744C12.5403 3.79963 12.4073 3.55609 12.3274 3.40977L12.3039 3.36781L12.2036 3.18772C12.1272 3.04856 12.0593 2.92781 12 2.82549ZM10.9911 1.56279C11.1671 1.33256 11.4863 1 12 1C12.5137 1 12.8329 1.33256 13.0089 1.56279C13.1778 1.78177 13.3466 2.08567 13.5206 2.39777L13.5441 2.43972L13.6444 2.62084L13.7027 2.72316L13.804 2.7467L13.9984 2.7907L14.0475 2.80093C14.3821 2.87767 14.7157 2.95237 14.9715 3.05367C15.254 3.16521 15.6367 3.38112 15.785 3.85693C15.9303 4.32251 15.7472 4.71749 15.5875 4.97228C15.4392 5.20763 15.214 5.46958 14.9838 5.7387L14.9531 5.77451L14.8201 5.93107L14.7362 6.03033C14.7382 6.06716 14.7433 6.11014 14.7485 6.16847L14.7689 6.37619L14.773 6.42326C14.8078 6.78344 14.8416 7.13135 14.8293 7.40967C14.817 7.70233 14.7474 8.14437 14.3504 8.44419C13.9411 8.75526 13.4909 8.68772 13.2044 8.60484C12.9404 8.53014 12.6283 8.38586 12.3141 8.24158L12.2701 8.22112L12.086 8.13619L12 8.09628L11.913 8.13721L11.7299 8.22112L11.6848 8.24158C11.3717 8.38586 11.0607 8.53014 10.7956 8.60484C10.5091 8.6867 10.0589 8.75526 9.64958 8.44419C9.25358 8.14437 9.18298 7.70233 9.1707 7.4107C9.15842 7.13135 9.19116 6.78344 9.22698 6.42326L9.23107 6.37619L9.25154 6.16847L9.26484 6.03033L9.17991 5.93107L9.04688 5.77451L9.01619 5.7387C8.78595 5.46958 8.56084 5.2066 8.41247 4.97126C8.25284 4.71749 8.06967 4.32251 8.21498 3.85591C8.36233 3.38214 8.74605 3.16521 9.02847 3.05367C9.28428 2.95237 9.61786 2.87767 9.95247 2.80195L10.0006 2.79172L10.196 2.7467L10.2983 2.72316L10.3556 2.62084L10.4559 2.43972L10.4794 2.39777C10.6534 2.08567 10.8222 1.78177 10.9911 1.56279ZM10.9266 9.18605H13.0734C13.7539 9.18605 14.3402 9.18605 14.8099 9.24949C15.3133 9.31702 15.7953 9.46949 16.1861 9.86037C16.577 10.2513 16.7295 10.7332 16.797 11.2367C16.8605 11.7063 16.8605 12.2927 16.8605 12.9731V15.4965C17.0283 15.4453 17.2012 15.4126 17.3762 15.389C17.8459 15.3256 18.4322 15.3256 19.1127 15.3256H19.2129C19.8934 15.3256 20.4797 15.3256 20.9494 15.389C21.4528 15.4566 21.9348 15.609 22.3257 15.9999C22.7166 16.3908 22.869 16.8727 22.9366 17.3762C23 17.8459 23 18.4322 23 19.1127V22.2326C23 22.4361 22.9191 22.6313 22.7752 22.7752C22.6313 22.9191 22.4361 23 22.2326 23C22.029 23 21.8338 22.9191 21.6899 22.7752C21.546 22.6313 21.4651 22.4361 21.4651 22.2326V19.1628C21.4651 18.4179 21.4631 17.9349 21.416 17.5808C21.371 17.2483 21.2983 17.1439 21.24 17.0856C21.1817 17.0273 21.0773 16.9546 20.7447 16.9096C20.3897 16.8625 19.9077 16.8605 19.1628 16.8605C18.4179 16.8605 17.9349 16.8625 17.5808 16.9096C17.2483 16.9546 17.1439 17.0273 17.0856 17.0856C17.0273 17.1439 16.9546 17.2483 16.9096 17.5808C16.8625 17.9359 16.8605 18.4179 16.8605 19.1628V22.2326C16.8605 22.4361 16.7796 22.6313 16.6357 22.7752C16.4918 22.9191 16.2966 23 16.093 23C15.8895 23 15.6943 22.9191 15.5504 22.7752C15.4064 22.6313 15.3256 22.4361 15.3256 22.2326V13.0233C15.3256 12.2783 15.3235 11.7953 15.2765 11.4413C15.2314 11.1087 15.1588 11.0044 15.1005 10.946C15.0421 10.8877 14.9378 10.8151 14.6052 10.77C14.2501 10.723 13.7682 10.7209 13.0233 10.7209H10.9767C10.2318 10.7209 9.74884 10.723 9.39479 10.77C9.06223 10.8151 8.95786 10.8877 8.89954 10.946C8.84121 11.0044 8.76856 11.1087 8.72354 11.4413C8.67647 11.7964 8.67442 12.2783 8.67442 13.0233V22.2326C8.67442 22.4361 8.59356 22.6313 8.44964 22.7752C8.30572 22.9191 8.11052 23 7.90698 23C7.70344 23 7.50824 22.9191 7.36431 22.7752C7.22039 22.6313 7.13953 22.4361 7.13953 22.2326C7.13953 21.4876 7.13749 21.0047 7.09042 20.6506C7.0454 20.318 6.97274 20.2137 6.91442 20.1553C6.85609 20.097 6.75172 20.0244 6.41916 19.9793C6.06409 19.9323 5.58214 19.9302 4.83721 19.9302C4.09228 19.9302 3.6093 19.9323 3.25526 19.9793C2.9227 20.0244 2.81833 20.097 2.76 20.1553C2.70167 20.2137 2.62902 20.318 2.584 20.6506C2.53693 21.0057 2.53488 21.4876 2.53488 22.2326C2.53488 22.4361 2.45403 22.6313 2.31011 22.7752C2.16618 22.9191 1.97098 23 1.76744 23C1.5639 23 1.3687 22.9191 1.22478 22.7752C1.08086 22.6313 1 22.4361 1 22.2326V22.1814C1 21.502 1 20.9156 1.06344 20.446C1.13098 19.9425 1.28344 19.4606 1.67433 19.0697C2.06521 18.6788 2.54819 18.5263 3.0506 18.4588C3.52028 18.3953 4.1066 18.3953 4.78707 18.3953H4.88735C5.56781 18.3953 6.15414 18.3953 6.62381 18.4588C6.79913 18.4813 6.97104 18.5171 7.13953 18.5662V12.9731C7.13953 12.2927 7.13953 11.7063 7.20298 11.2367C7.27051 10.7332 7.42298 10.2513 7.81386 9.86037C8.20474 9.46949 8.68772 9.31702 9.19014 9.24949C9.65981 9.18605 10.2461 9.18605 10.9266 9.18605Z" fill="#747474"/>
</svg>
