<svg width="24" height="24" viewBox="0 0 24 24" fill="none" xmlns="http://www.w3.org/2000/svg">
<g clip-path="url(#clip0_1857_2390)">
<path d="M15.334 17.3333C15.334 17.5101 15.2637 17.6797 15.1387 17.8047C15.0137 17.9297 14.8441 18 14.6673 18H5.33398C5.18732 18 5.04732 18.1333 4.92732 18.22L2.66732 20V9.33331C2.66732 9.1565 2.73756 8.98693 2.86258 8.86191C2.9876 8.73688 3.15717 8.66665 3.33398 8.66665H5.90732V7.33331H3.33398C2.80355 7.33331 2.29484 7.54403 1.91977 7.9191C1.5447 8.29417 1.33398 8.80288 1.33398 9.33331V21.3333C1.33498 21.4571 1.37043 21.5782 1.43637 21.683C1.50231 21.7878 1.59613 21.8722 1.70732 21.9266C1.81444 21.9754 1.93254 21.9949 2.04963 21.9831C2.16673 21.9714 2.27863 21.9289 2.37398 21.86L5.80732 19.3333H14.7673C15.02 19.3408 15.2715 19.2963 15.5063 19.2026C15.7411 19.1089 15.9541 18.968 16.1322 18.7887C16.3104 18.6093 16.4497 18.3953 16.5418 18.1598C16.6338 17.9244 16.6766 17.6726 16.6673 17.42V16.6666H15.334V17.3333Z" fill="#747474" stroke="#747474" stroke-width="0.3"/>
<path d="M20.6673 2.66669H9.33398C8.80355 2.66669 8.29484 2.8774 7.91977 3.25247C7.5447 3.62755 7.33398 4.13625 7.33398 4.66669V12.6667C7.33398 13.1971 7.5447 13.7058 7.91977 14.0809C8.29484 14.456 8.80355 14.6667 9.33398 14.6667H18.3673L21.554 17.14C21.6487 17.2101 21.7603 17.2537 21.8774 17.2666C21.9945 17.2795 22.113 17.2611 22.2207 17.2134C22.3341 17.1593 22.43 17.0743 22.4972 16.9682C22.5644 16.862 22.6003 16.739 22.6007 16.6134V4.66669C22.6009 4.14761 22.3994 3.64875 22.0386 3.27553C21.6779 2.90232 21.1861 2.68399 20.6673 2.66669ZM21.334 15.2934L19.0007 13.4734C18.8843 13.383 18.7413 13.3338 18.594 13.3334H9.33398C9.15717 13.3334 8.9876 13.2631 8.86258 13.1381C8.73756 13.0131 8.66732 12.8435 8.66732 12.6667V4.66669C8.66732 4.48988 8.73756 4.32031 8.86258 4.19528C8.9876 4.07026 9.15717 4.00002 9.33398 4.00002H20.6673C20.8455 4.01619 21.0117 4.09697 21.1345 4.22712C21.2572 4.35728 21.3282 4.52784 21.334 4.70669V15.2934Z" fill="#747474" stroke="#747474" stroke-width="0.3"/>
</g>
<defs>
<clipPath id="clip0_1857_2390">
<rect width="24" height="24" fill="white"/>
</clipPath>
</defs>
</svg>
