<svg width="24" height="24" viewBox="0 0 24 24" fill="none" xmlns="http://www.w3.org/2000/svg">
<g clip-path="url(#clip0_1787_32318)">
<path d="M15.3333 17.3333C15.3333 17.5101 15.2631 17.6796 15.1381 17.8047C15.013 17.9297 14.8435 17.9999 14.6666 17.9999H5.33331C5.18665 17.9999 5.04665 18.1333 4.92665 18.2199L2.66665 19.9999V9.33325C2.66665 9.15644 2.73688 8.98687 2.86191 8.86185C2.98693 8.73682 3.1565 8.66659 3.33331 8.66659H5.90665V7.33325H3.33331C2.80288 7.33325 2.29417 7.54397 1.9191 7.91904C1.54403 8.29411 1.33331 8.80282 1.33331 9.33325V21.3333C1.33431 21.4571 1.36976 21.5782 1.4357 21.683C1.50164 21.7877 1.59546 21.8721 1.70665 21.9266C1.81377 21.9753 1.93187 21.9948 2.04896 21.9831C2.16605 21.9714 2.27796 21.9289 2.37331 21.8599L5.80665 19.3333H14.7666C15.0193 19.3407 15.2708 19.2962 15.5056 19.2026C15.7404 19.1089 15.9534 18.968 16.1316 18.7886C16.3097 18.6092 16.4491 18.3952 16.5411 18.1598C16.6332 17.9244 16.6759 17.6725 16.6666 17.4199V16.6666H15.3333V17.3333Z" fill="white" stroke="white" stroke-width="0.3"/>
<path d="M20.6666 2.66675H9.33331C8.80288 2.66675 8.29417 2.87746 7.9191 3.25253C7.54403 3.62761 7.33331 4.13632 7.33331 4.66675V12.6667C7.33331 13.1972 7.54403 13.7059 7.9191 14.081C8.29417 14.456 8.80288 14.6667 9.33331 14.6667H18.3666L21.5533 17.1401C21.648 17.2101 21.7596 17.2538 21.8768 17.2667C21.9939 17.2796 22.1123 17.2612 22.22 17.2134C22.3334 17.1594 22.4293 17.0744 22.4965 16.9682C22.5638 16.8621 22.5996 16.7391 22.6 16.6134V4.66675C22.6003 4.14767 22.3987 3.64881 22.038 3.27559C21.6772 2.90238 21.1854 2.68405 20.6666 2.66675ZM21.3333 15.2934L19 13.4734C18.8836 13.3831 18.7406 13.3339 18.5933 13.3334H9.33331C9.1565 13.3334 8.98693 13.2632 8.86191 13.1382C8.73688 13.0131 8.66665 12.8436 8.66665 12.6667V4.66675C8.66665 4.48994 8.73688 4.32037 8.86191 4.19534C8.98693 4.07032 9.1565 4.00008 9.33331 4.00008H20.6666C20.8449 4.01626 21.011 4.09703 21.1338 4.22718C21.2566 4.35734 21.3275 4.5279 21.3333 4.70675V15.2934Z" fill="white" stroke="white" stroke-width="0.3"/>
</g>
<defs>
<clipPath id="clip0_1787_32318">
<rect width="24" height="24" fill="white"/>
</clipPath>
</defs>
</svg>
