<svg width="18" height="54" viewBox="0 0 18 54" fill="none" xmlns="http://www.w3.org/2000/svg">
<path d="M9.55877 1.60032C9.89029 1.15861 9.80097 0.531776 9.35926 0.200248C8.91755 -0.131281 8.29072 -0.0419608 7.95919 0.399749L9.55877 1.60032ZM17.6698 53.9999L14.8179 42.8106L6.55364 50.875L17.6698 53.9999ZM16.311 51.1758C15.9319 50.7741 15.299 50.7559 14.8974 51.135C14.4958 51.514 14.4775 52.1469 14.8566 52.5486L16.311 51.1758ZM10.8678 47.9965C11.215 48.426 11.8446 48.4926 12.2741 48.1454C12.7036 47.7982 12.7703 47.1685 12.4231 46.7391L10.8678 47.9965ZM8.94523 42.0098C8.6404 41.5493 8.01995 41.4231 7.55941 41.7279C7.09886 42.0327 6.97263 42.6532 7.27746 43.1137L8.94523 42.0098ZM4.21557 37.8547C4.46344 38.3483 5.06447 38.5474 5.55801 38.2996C6.05155 38.0517 6.2507 37.4507 6.00284 36.9571L4.21557 37.8547ZM3.77096 31.5887C3.5986 31.064 3.03352 30.7783 2.50882 30.9507C1.98412 31.1231 1.6985 31.6881 1.87086 32.2128L3.77096 31.5887ZM0.466495 26.2414C0.543709 26.7883 1.04962 27.169 1.59648 27.0918C2.14334 27.0146 2.52407 26.5087 2.44685 25.9618L0.466495 26.2414ZM2.20041 20.2041C2.23167 19.6527 1.81002 19.1803 1.25862 19.1491C0.707218 19.1178 0.234878 19.5394 0.203617 20.0908L2.20041 20.2041ZM1.15974 14.011C1.02119 14.5457 1.34227 15.0914 1.8769 15.2299C2.41152 15.3685 2.95724 15.0474 3.09579 14.5128L1.15974 14.011ZM5.04979 9.06941C5.28063 8.56768 5.06103 7.97382 4.5593 7.74298C4.05757 7.51214 3.46371 7.73174 3.23287 8.23347L5.04979 9.06941ZM6.20682 2.89325C5.90406 3.35516 6.03307 3.97504 6.49498 4.2778C6.95688 4.58055 7.57677 4.45154 7.87952 3.98963L6.20682 2.89325ZM12.4231 46.7391C11.1269 45.1358 9.97077 43.5593 8.94523 42.0098L7.27746 43.1137C8.34016 44.7193 9.5342 46.347 10.8678 47.9965L12.4231 46.7391ZM6.00284 36.9571C5.08296 35.1255 4.34489 33.3358 3.77096 31.5887L1.87086 32.2128C2.47715 34.0585 3.25367 35.9394 4.21557 37.8547L6.00284 36.9571ZM2.44685 25.9618C2.16774 23.9851 2.09487 22.0656 2.20041 20.2041L0.203617 20.0908C0.0906764 22.0829 0.168924 24.1339 0.466495 26.2414L2.44685 25.9618ZM3.09579 14.5128C3.58256 12.6345 4.24459 10.8195 5.04979 9.06941L3.23287 8.23347C2.38218 10.0825 1.67857 12.009 1.15974 14.011L3.09579 14.5128ZM7.87952 3.98963C8.41284 3.17598 8.97398 2.37945 9.55877 1.60032L7.95919 0.399749C7.35033 1.21096 6.76464 2.0422 6.20682 2.89325L7.87952 3.98963Z" fill="#66A776"/>
</svg>
