<svg width="20" height="20" viewBox="0 0 20 20" fill="none" xmlns="http://www.w3.org/2000/svg">
<rect width="20" height="20" rx="10" fill="#66A776"/>
<path d="M5.99219 13.7969L10.0547 10.0625C10.4557 9.67708 10.7656 9.35938 10.9844 9.10938C11.2083 8.85417 11.3802 8.60156 11.5 8.35156C11.6198 8.09635 11.6797 7.82292 11.6797 7.53125C11.6797 7.20312 11.6016 6.91667 11.4453 6.67188C11.2943 6.42188 11.0807 6.23177 10.8047 6.10156C10.5339 5.97135 10.2266 5.90625 9.88281 5.90625C9.34635 5.90104 8.91927 6.05729 8.60156 6.375C8.28385 6.6875 8.1276 7.11458 8.13281 7.65625H5.89844C5.89844 6.93229 6.0651 6.29688 6.39844 5.75C6.73698 5.19792 7.20833 4.77344 7.8125 4.47656C8.42188 4.17969 9.1224 4.03125 9.91406 4.03125C10.7109 4.03125 11.4141 4.17448 12.0234 4.46094C12.6328 4.74219 13.1042 5.13542 13.4375 5.64062C13.776 6.14583 13.9453 6.72396 13.9453 7.375C13.9453 7.82292 13.8594 8.2526 13.6875 8.66406C13.5156 9.07031 13.2161 9.52344 12.7891 10.0234C12.3672 10.5234 11.7682 11.125 10.9922 11.8281L9.27344 13.5V13.5625H14.1016V15.5H6.00781L5.99219 13.7969Z" fill="white"/>
</svg>
